<?xml version="1.0" encoding="utf-8"?>
<svg width="154" height="83" viewBox="0 0 154 83" fill="none" stroke="none" version="1.1" xmlns:xlink="http://www.w3.org/1999/xlink" xmlns="http://www.w3.org/2000/svg">
  <defs>
    <filter color-interpolation-filters="sRGB" x="-149" y="-78" width="151" height="80" id="filter_1">
      <feFlood flood-opacity="0" result="BackgroundImageFix_1" />
      <feColorMatrix type="matrix" values="0 0 0 0 0 0 0 0 0 0 0 0 0 0 0 0 0 0 1 0" in="SourceAlpha" />
      <feOffset dx="3" dy="3" />
      <feColorMatrix type="matrix" values="0 0 0 0 0.992 0 0 0 0 0.608 0 0 0 0 0.773 0 0 0 0.498 0" />
      <feBlend mode="normal" in2="BackgroundImageFix_1" result="Shadow_2" />
      <feBlend mode="normal" in="SourceGraphic" in2="Shadow_2" result="Shape_3" />
    </filter>
  </defs>
  <g style="filter:url(#filter_1);mix-blend-mode:normal;">
    <g>
      <path d="M13.125 63.0312L4.15625 63.0312L4.15625 18.2188L13.125 18.2188L13.125 63.0312ZM57.2188 58.4375Q54.0938 61.125 50.2188 62.5625Q46.3438 64 42.1875 64Q39 64 36.0469 63.1719Q33.0938 62.3438 30.5156 60.8281Q27.9375 59.3125 25.8125 57.1875Q23.6875 55.0625 22.1719 52.4844Q20.6562 49.9062 19.8281 46.9531Q19 44 19 40.8125Q19 37.625 19.8281 34.6562Q20.6562 31.6875 22.1719 29.1094Q23.6875 26.5312 25.8125 24.4062Q27.9375 22.2812 30.5156 20.7656Q33.0938 19.25 36.0469 18.4219Q39 17.5938 42.1875 17.5938Q46.3438 17.5938 50.2188 19.0156Q54.0938 20.4375 57.2188 23.1562L52.4688 30.9688Q50.5 28.8438 47.8125 27.7031Q45.125 26.5625 42.1875 26.5625Q39.2188 26.5625 36.625 27.6875Q34.0312 28.8125 32.0938 30.7344Q30.1562 32.6562 29.0312 35.2656Q27.9062 37.875 27.9062 40.8125Q27.9062 43.75 29.0312 46.3281Q30.1562 48.9062 32.0938 50.8438Q34.0312 52.7812 36.625 53.9062Q39.2188 55.0312 42.1875 55.0312Q45.125 55.0312 47.8125 53.8906Q50.5 52.75 52.4688 50.625L57.2188 58.4375ZM93.3125 63.0312L91.25 63.0312L87.9375 58.4375Q86.7188 59.5312 85.3594 60.4844Q84 61.4375 82.5 62.1406Q81 62.8438 79.4219 63.25Q77.8438 63.6562 76.2188 63.6562Q72.6875 63.6562 69.5781 62.4688Q66.4688 61.2812 64.1406 59.0156Q61.8125 56.75 60.4688 53.4688Q59.125 50.1875 59.125 46Q59.125 42.0938 60.4688 38.8281Q61.8125 35.5625 64.1406 33.2188Q66.4688 30.875 69.5781 29.5781Q72.6875 28.2812 76.2188 28.2812Q77.8438 28.2812 79.4375 28.6875Q81.0312 29.0938 82.5312 29.8125Q84.0312 30.5312 85.3906 31.5Q86.75 32.4688 87.9375 33.5938L91.25 29.625L93.3125 29.625L93.3125 63.0312ZM84.7188 46Q84.7188 44.25 84.0469 42.6094Q83.375 40.9688 82.2188 39.7031Q81.0625 38.4375 79.5156 37.6719Q77.9688 36.9062 76.2188 36.9062Q74.4688 36.9062 72.9219 37.5Q71.375 38.0938 70.2344 39.25Q69.0938 40.4062 68.4375 42.1094Q67.7812 43.8125 67.7812 46Q67.7812 48.1875 68.4375 49.8906Q69.0938 51.5938 70.2344 52.75Q71.375 53.9062 72.9219 54.5Q74.4688 55.0938 76.2188 55.0938Q77.9688 55.0938 79.5156 54.3281Q81.0625 53.5625 82.2188 52.2969Q83.375 51.0312 84.0469 49.3906Q84.7188 47.75 84.7188 46ZM109.438 20.4688Q109.438 21.6562 108.984 22.6875Q108.531 23.7188 107.766 24.4844Q107 25.25 105.953 25.7031Q104.906 26.1562 103.75 26.1562Q102.531 26.1562 101.484 25.7031Q100.438 25.25 99.6562 24.4844Q98.875 23.7188 98.4219 22.6875Q97.9688 21.6562 97.9688 20.4688Q97.9688 19.3125 98.4219 18.2656Q98.875 17.2188 99.6562 16.4531Q100.438 15.6875 101.484 15.2344Q102.531 14.7812 103.75 14.7812Q104.906 14.7812 105.953 15.2344Q107 15.6875 107.766 16.4531Q108.531 17.2188 108.984 18.2656Q109.438 19.3125 109.438 20.4688ZM86.5312 75.7812L86.5312 67.1875L91.25 67.25Q92.9688 67.25 94.4375 66.5469Q95.9062 65.8438 96.9844 64.6719Q98.0625 63.5 98.6875 61.9688Q99.3125 60.4375 99.3125 58.75L99.3125 29.5625L108.031 29.5625L108.031 58.75L107.969 58.75Q107.938 61.0938 107.328 63.2812Q106.719 65.4688 105.594 67.3594Q104.469 69.25 102.906 70.7969Q101.344 72.3438 99.4531 73.4531Q97.5625 74.5625 95.3906 75.1719Q93.2188 75.7812 90.875 75.7812L86.5312 75.7812ZM146.875 63.0312L144.812 63.0312L141.5 58.4375Q140.281 59.5312 138.922 60.4844Q137.562 61.4375 136.062 62.1406Q134.562 62.8438 132.984 63.25Q131.406 63.6562 129.781 63.6562Q126.25 63.6562 123.141 62.4688Q120.031 61.2812 117.703 59.0156Q115.375 56.75 114.031 53.4688Q112.688 50.1875 112.688 46Q112.688 42.0938 114.031 38.8281Q115.375 35.5625 117.703 33.2188Q120.031 30.875 123.141 29.5781Q126.25 28.2812 129.781 28.2812Q131.406 28.2812 133 28.6875Q134.594 29.0938 136.094 29.8125Q137.594 30.5312 138.953 31.5Q140.312 32.4688 141.5 33.5938L144.812 29.625L146.875 29.625L146.875 63.0312ZM138.281 46Q138.281 44.25 137.609 42.6094Q136.938 40.9688 135.781 39.7031Q134.625 38.4375 133.078 37.6719Q131.531 36.9062 129.781 36.9062Q128.031 36.9062 126.484 37.5Q124.938 38.0938 123.797 39.25Q122.656 40.4062 122 42.1094Q121.344 43.8125 121.344 46Q121.344 48.1875 122 49.8906Q122.656 51.5938 123.797 52.75Q124.938 53.9062 126.484 54.5Q128.031 55.0938 129.781 55.0938Q131.531 55.0938 133.078 54.3281Q134.625 53.5625 135.781 52.2969Q136.938 51.0312 137.609 49.3906Q138.281 47.75 138.281 46Z" style="fill:#FC6DAB;" />
    </g>
  </g>
</svg>