<?xml version="1.0" encoding="utf-8"?>
<svg width="235.223" height="238.383" viewBox="0 0 235.223 238.383" fill="none" stroke="none" version="1.1" xmlns:xlink="http://www.w3.org/1999/xlink" xmlns="http://www.w3.org/2000/svg">
  <g id="patron2">
    <path id="Oval" d="M135.003 59.5001C135.003 59.5001 140 59.5001 140 59.5001C140 92.3612 108.66 119 70.0002 119C31.3401 119 0 92.3611 0 59.5001C1.52588e-05 26.6391 31.3401 -1.52588e-05 70.0002 0C108.66 0 140 26.6391 140 59.5001C140 59.5001 135.003 59.5001 135.003 59.5001C135.003 28.985 105.9 4.24767 70.0002 4.24767C34.1001 4.24767 4.99725 28.985 4.99725 59.5001C4.99725 90.0152 34.1001 114.753 70.0002 114.753C105.9 114.753 135.003 90.0152 135.003 59.5001Z" style="fill:#6DFCBE;fill-rule:evenodd;mix-blend-mode:normal;" transform="matrix(-0.951 -0.309 0.309 -0.951 190.055 237.383)" />
    <path id="Oval" d="M175.504 90.5002C175.504 90.5002 182.001 90.5003 182.001 90.5003C182.001 140.482 141.258 181.001 91.0003 181.001C40.7422 181.001 0 140.482 0 90.5003C1.52588e-05 40.5184 40.7422 0 91.0003 0C141.258 0 182.001 40.5183 182.001 90.5003C182.001 90.5003 175.504 90.5002 175.504 90.5002C175.504 44.0865 137.67 6.46074 91.0003 6.46074C44.3301 6.46072 6.49644 44.0865 6.49643 90.5003C6.49643 136.914 44.3301 174.54 91.0003 174.54C137.67 174.54 175.504 136.914 175.504 90.5002Z" style="fill:#6DFCBE;fill-rule:evenodd;mix-blend-mode:normal;" transform="matrix(-0.951 -0.309 0.309 -0.951 173.093 228.383)" />
    <path id="Oval" d="M135.003 59.5001C135.003 59.5001 140 59.5001 140 59.5001C140 92.3611 108.66 119 70.0001 119C31.3401 119 0 92.3611 0 59.5001C0 26.6391 31.3401 0 70.0001 0C108.66 -1.52588e-05 140 26.6391 140 59.5001C140 59.5001 135.003 59.5001 135.003 59.5001C135.003 28.985 105.9 4.24767 70.0001 4.24765C34.1001 4.24765 4.99725 28.985 4.99725 59.5001C4.99725 90.0152 34.1 114.753 70.0001 114.753C105.9 114.753 135.003 90.0152 135.003 59.5001Z" style="fill:#6DFCBE;fill-rule:evenodd;mix-blend-mode:normal;" transform="matrix(-0.951 -0.309 0.309 -0.951 175.522 215.383)" />
    <path id="Oval" d="M170.682 82.5002C170.682 82.5002 177 82.5002 177 82.5002C177 128.064 137.377 165 88.5002 165C39.6229 165 -1.52588e-05 128.064 0 82.5002C-1.52588e-05 36.9366 39.6229 1.52588e-05 88.5002 0C137.377 -1.52588e-05 177 36.9366 177 82.5002C177 82.5002 170.682 82.5002 170.682 82.5002C170.682 40.1893 133.888 5.88962 88.5002 5.88962C43.1122 5.88962 6.31793 40.1893 6.31793 82.5002C6.31793 124.811 43.1122 159.111 88.5002 159.111C133.888 159.111 170.682 124.811 170.682 82.5002Z" style="fill:#FD9BC5;fill-rule:evenodd;mix-blend-mode:normal;" transform="matrix(-0.951 -0.309 0.309 -0.951 184.235 238.383)" />
  </g>
</svg>